<?xml version="1.0" encoding="utf-8"?>
<!-- Generator: Adobe Illustrator 27.5.0, SVG Export Plug-In . SVG Version: 6.00 Build 0)  -->
<svg version="1.1" id="Layer_1" xmlns="http://www.w3.org/2000/svg" xmlns:xlink="http://www.w3.org/1999/xlink" x="0px" y="0px"
	 viewBox="0 0 1080 1080" style="enable-background:new 0 0 1080 1080;" xml:space="preserve">
<style type="text/css">
	.st0{fill:url(#SVGID_1_);}
	.st1{fill:#3D3E3E;}
</style>
<linearGradient id="SVGID_1_" gradientUnits="userSpaceOnUse" x1="370.4375" y1="472.738" x2="727.5009" y2="472.738">
	<stop  offset="0" style="stop-color:#0E88C1"/>
	<stop  offset="0.2137" style="stop-color:#138AC2"/>
	<stop  offset="0.4275" style="stop-color:#2292C4"/>
	<stop  offset="0.6417" style="stop-color:#349FC8"/>
	<stop  offset="0.8547" style="stop-color:#4BB1CC"/>
	<stop  offset="1" style="stop-color:#5DC1CE"/>
</linearGradient>
<path class="st0" d="M726.29,487.22c-3.38-16.7-12.56-27.2-15.22-30.08c-17.85-19.36-42.04-20.34-47.02-20.43
	c-1.32-4.62-9.88-32.73-38.87-47.03c-34.24-16.89-66.9,0.3-69.94,1.97c-2.29-1.31-36.91-20.47-72-2
	c-28.63,15.08-36.09,43.91-37.19,48.45c-6.52-0.9-23.65-2.36-41.31,7.2c-3.08,1.67-31.81,17.87-34.17,51.2
	c-2.4,33.8,24.55,54,27.27,55.96c10.43,7.54,20.97,10.26,27.45,11.36c81.29-0.06,162.58-0.13,243.88-0.2
	c3.72-0.34,30.85-3.27,47.44-27.65C731.32,514.38,727.17,491.57,726.29,487.22z M699.81,511.28c-4.67,14.54-19.31,25-36.44,25.69
	c-76.25,0.23-152.49,0.46-228.73,0.69c-22.06-0.96-38.47-20.16-36.75-40.24c1.8-21.02,22.99-37.47,45.7-32.94
	c0.67,1.53,1.34,3.07,2.01,4.61c2.94,6.74,5.84,13.45,8.69,20.15c-1.18,2.77-1.87,5.81-1.94,9.01
	c-0.28,13.39,10.33,24.47,23.73,24.76c13.39,0.28,24.46-10.34,24.75-23.73c0.28-13.39-10.33-24.47-23.72-24.76
	c-0.77-0.02-1.52,0-2.27,0.06c-1.26-3.33-9.55-27.4,5.16-47.37c10.1-13.71,24.93-17.19,27.37-17.72
	c12.77-2.79,23.11,0.65,27.11,2.23c-2.66,4.2-7.09,12.46-8.21,23.8c-0.91,9.26,0.75,16.77,2.12,21.26
	c-2.31,1.4-8.58,5.62-11.3,13.66c-0.42,1.26-1.16,4.06-1.23,7.14c-0.28,13.39,10.34,24.47,23.73,24.76
	c13.39,0.28,24.47-10.33,24.76-23.73c0.07-3.39-0.73-6.52-0.99-7.42c-2.3-7.89-7.88-12.46-10.23-14.17
	c-0.4-2.21-4.06-24.67,11.07-39.09c15.7-14.94,40.69-10.82,55.53-1.13c12.51,8.17,17.71,20.25,19.61,25.53
	c-4.3,1.71-10.32,4.69-16.4,9.89c-7.9,6.77-12.27,14.23-14.56,18.96c-10.27,2.64-17.96,11.85-18.2,22.98
	c-0.28,13.39,10.33,24.47,23.73,24.76c13.39,0.28,24.47-10.34,24.76-23.73c0.12-5.59-1.66-10.79-4.76-14.96
	c8.92-12.43,23.11-19.19,36.55-17.08C691.36,466.45,706.44,490.61,699.81,511.28z"/>
<g>
	<path class="st1" d="M397.58,614.54v8.69h20.02v9.55h-20.02v18.31h-10.8v-46.11h32.14v9.55H397.58z"/>
	<path class="st1" d="M445.14,617.31v9.95c-3.86,0-7.11,0.68-9.75,2.04v21.8h-10.54v-32.93h9.22l0.86,2.77
		C438.13,618.52,441.54,617.31,445.14,617.31z"/>
	<path class="st1" d="M463.45,617.31c5.62,0,9.77,1.33,12.45,3.99c2.68,2.66,4.02,6.64,4.02,11.95c0,3.21-0.41,6.25-1.22,9.12
		c-0.81,2.88-1.83,5.21-3.06,7.01c-3.95,1.8-8.01,2.7-12.19,2.7c-5.62,0-9.77-1.33-12.45-3.99c-2.68-2.66-4.02-6.64-4.02-11.95
		c0-5.93,1.43-11.31,4.28-16.14C455.22,618.21,459.28,617.31,463.45,617.31z M457.52,634.43c0,2.94,0.48,5.1,1.45,6.49
		c0.97,1.38,2.46,2.07,4.48,2.07c1.8,0,3.45-0.24,4.94-0.72c0.66-2.2,0.99-4.63,0.99-7.31c0-2.94-0.48-5.1-1.45-6.49
		c-0.97-1.38-2.46-2.07-4.48-2.07c-1.8,0-3.45,0.24-4.94,0.72C457.85,629.32,457.52,631.76,457.52,634.43z"/>
	<path class="st1" d="M505.47,617.31c7.25,0,10.87,3.73,10.87,11.2v22.59H505.8v-19.3c0-3.16-1.32-4.74-3.95-4.74
		c-2.11,0-4.19,0.83-6.26,2.5v21.54h-10.54v-32.93h9.22l0.86,2.77C498.33,618.52,501.78,617.31,505.47,617.31z"/>
	<path class="st1" d="M545.52,640.56l2.11,8.36c-3.56,2.11-7.31,3.16-11.26,3.16c-7.2,0-10.8-3.97-10.8-11.92v-12.91h-4.61v-9.09
		h4.61v-8.69h10.54v8.69h10.01v9.09H536.1v11.79c0,2.2,1.03,3.29,3.1,3.29C540.73,642.34,542.84,641.75,545.52,640.56z"/>
	<path class="st1" d="M583.46,610c-3.38,0-6.52,0.62-9.42,1.84c-2.24,4.61-3.36,10.34-3.36,17.19c0,5.84,1.01,10.14,3.03,12.91
		c2.02,2.77,5.18,4.15,9.48,4.15c4.26,0,8.54-0.94,12.84-2.83l0.46,0.2v5.73c-4.22,1.93-8.87,2.9-13.96,2.9
		c-6.28,0-10.94-1.87-14-5.6c-3.05-3.73-4.58-9.4-4.58-16.99c0-4.04,0.53-8.06,1.58-12.05c1.05-4,2.42-7.31,4.08-9.95
		c4.65-2.37,9.48-3.56,14.49-3.56c4.65,0,8.78,0.79,12.38,2.37v5.93l-0.46,0.26C591.82,610.83,587.63,610,583.46,610z"/>
	<path class="st1" d="M611.45,601.7v49.4h-6.59v-49.4H611.45z"/>
	<path class="st1" d="M633.91,617.64c9.66,0,14.49,5.45,14.49,16.33c0,6.32-1.32,11.5-3.95,15.54c-3.56,1.71-7.2,2.57-10.93,2.57
		c-9.66,0-14.49-5.44-14.49-16.33c0-6.06,1.32-11.26,3.95-15.61C626.62,618.47,630.26,617.64,633.91,617.64z M639.97,645.1
		c1.23-3.16,1.84-6.65,1.84-10.47c0-7.46-2.63-11.2-7.9-11.2c-2.28,0-4.44,0.4-6.46,1.19c-1.23,3.16-1.84,6.65-1.84,10.47
		c0,7.46,2.63,11.2,7.9,11.2C635.79,646.29,637.95,645.9,639.97,645.1z"/>
	<path class="st1" d="M684.29,618.56v32.54h-5.67l-0.53-2.57c-3.65,2.37-7.25,3.56-10.8,3.56c-7.42,0-11.13-3.51-11.13-10.54v-22.99
		h6.59v21.67c0,3.87,2.08,5.8,6.26,5.8c3.03,0,5.93-1.08,8.69-3.23v-24.24H684.29z"/>
	<path class="st1" d="M721.05,601.7v40.84c0,2.77,0.53,5.42,1.58,7.97l-0.26,0.59h-6.52c-0.35-0.88-0.59-1.54-0.72-1.98
		c-2.81,1.98-5.91,2.96-9.29,2.96c-4.39,0-7.75-1.35-10.08-4.05c-2.33-2.7-3.49-6.66-3.49-11.89c0-3.07,0.36-6.06,1.09-8.96
		c0.72-2.9,1.66-5.25,2.8-7.05c3.2-1.67,6.67-2.5,10.41-2.5c3.03,0,5.66,0.42,7.9,1.25V601.7H721.05z M698.85,635.49
		c0,7.2,2.79,10.8,8.36,10.8c2.46,0,4.87-0.75,7.25-2.24v-19.23c-2.15-0.92-4.7-1.38-7.64-1.38c-2.15,0-4.19,0.37-6.13,1.12
		C699.46,627.94,698.85,631.58,698.85,635.49z"/>
</g>
</svg>
